<svg width="162" height="172" viewBox="0 0 162 172" fill="none" xmlns="http://www.w3.org/2000/svg">
<g clip-path="url(#clip0_17672_54743)">
<path d="M140.796 171.502H17.7773C-4.59602 171.502 -6.56807 164.763 17.7773 164.763H140.796C156.68 164.763 158.263 171.502 140.796 171.502Z" fill="black"/>
<path d="M130.093 133.704H121.654C121.596 133.704 121.541 133.681 121.501 133.641C121.46 133.6 121.438 133.546 121.438 133.488V127.635C121.437 127.607 121.442 127.578 121.452 127.551C121.463 127.524 121.479 127.5 121.499 127.479C121.519 127.459 121.543 127.442 121.57 127.431C121.596 127.42 121.625 127.414 121.654 127.414H130.093C130.446 127.415 130.785 127.556 131.035 127.806C131.285 128.056 131.426 128.394 131.427 128.748V132.371C131.427 132.724 131.287 133.063 131.037 133.314C130.786 133.564 130.447 133.704 130.093 133.704ZM121.875 133.267H130.093C130.331 133.267 130.559 133.172 130.727 133.004C130.895 132.836 130.99 132.608 130.99 132.371V128.748C130.988 128.511 130.893 128.284 130.725 128.117C130.557 127.95 130.33 127.857 130.093 127.857H121.875V133.267Z" fill="black"/>
<path d="M136.571 143.796C136.571 146.911 135.744 149.849 132.627 149.859L4.40547 150.28C1.42308 150.28 0.304688 147.516 0.304688 144.541C0.304688 140.351 1.16915 136.933 3.87059 133.478C6.05324 130.694 8.54557 128.167 11.2996 125.946C21.9216 117.399 32.6031 117.782 36.9146 116.859C39.9997 116.859 45.4404 88.8585 63.8426 88.8585H74.5079C85.1786 88.8585 101.409 88.6263 108.903 92.2492C109.232 92.41 109.551 92.5902 109.859 92.7891C116.883 97.1787 122.658 111.552 127.407 116.87C135.198 125.563 136.571 134.941 136.571 143.796Z" fill="#FFBF00"/>
<path d="M48.3792 148.815C44.4945 148.815 42.2956 146.212 39.7346 143.2C36.1957 138.983 32.1543 134.204 22.1482 134.204C22.0923 134.204 22.0387 134.182 21.9992 134.143C21.9597 134.103 21.9375 134.05 21.9375 133.994C21.9375 133.938 21.9597 133.884 21.9992 133.845C22.0387 133.805 22.0923 133.783 22.1482 133.783C32.3759 133.783 36.6549 138.859 40.0966 142.93C42.5765 145.867 44.716 148.399 48.4062 148.399C48.4363 148.394 48.4672 148.396 48.4966 148.404C48.5259 148.412 48.5532 148.427 48.5764 148.447C48.5997 148.466 48.6183 148.491 48.6311 148.519C48.6439 148.546 48.6506 148.576 48.6506 148.607C48.6506 148.637 48.6439 148.668 48.6311 148.695C48.6183 148.723 48.5997 148.747 48.5764 148.767C48.5532 148.787 48.5259 148.801 48.4966 148.81C48.4672 148.818 48.4363 148.82 48.4062 148.815H48.3792Z" fill="black"/>
<path d="M93.5501 149.197H93.496C93.4435 149.181 93.399 149.147 93.3718 149.099C93.3445 149.052 93.3368 148.996 93.3501 148.943C95.7436 140.012 104.567 133.787 114.827 133.787H114.891C121.737 133.787 127.318 136.136 131.992 140.914C132.016 140.932 132.036 140.956 132.051 140.982C132.065 141.009 132.074 141.038 132.076 141.069C132.078 141.099 132.073 141.129 132.063 141.158C132.052 141.186 132.035 141.212 132.013 141.233C131.992 141.254 131.965 141.271 131.937 141.281C131.908 141.291 131.878 141.295 131.847 141.293C131.817 141.29 131.788 141.281 131.761 141.266C131.735 141.251 131.712 141.23 131.694 141.206C127.048 136.449 121.71 134.224 114.891 134.187H114.827C104.756 134.187 96.0948 140.282 93.7554 149.029C93.7438 149.076 93.7175 149.117 93.6805 149.147C93.6435 149.177 93.5978 149.195 93.5501 149.197Z" fill="black"/>
<path d="M127.39 116.856C122.803 116.742 120.561 114.545 109.771 97.9583C107.924 95.1183 108.929 93.5093 109.842 92.7588C116.887 97.1484 122.63 111.537 127.39 116.856Z" fill="white"/>
<path d="M107.722 116.858H49.4301C47.9281 116.858 47.0312 116.929 45.8264 116.61C44.2325 116.183 44.1082 114.537 44.6215 112.971C47.5661 104.008 54.4332 92.2432 63.1642 92.2432H93.0908C98.4937 92.2432 101.136 97.5128 104.123 103.668C107.111 109.823 110.483 116.858 107.722 116.858Z" fill="white"/>
<path d="M39.2196 118.4H38.139C37.4244 118.368 36.7495 118.062 36.2549 117.546C35.7604 117.029 35.4844 116.342 35.4844 115.627C35.4844 114.912 35.7604 114.225 36.2549 113.708C36.7495 113.192 37.4244 112.886 38.139 112.854H39.2196C39.5062 112.854 39.781 112.968 39.9837 113.171C40.1863 113.373 40.3001 113.648 40.3001 113.934V117.32C40.3001 117.606 40.1863 117.881 39.9837 118.083C39.781 118.286 39.5062 118.4 39.2196 118.4Z" fill="#FEFFFF"/>
<path d="M39.2254 118.619H38.1448C37.3722 118.586 36.6422 118.256 36.1072 117.698C35.5721 117.14 35.2734 116.397 35.2734 115.625C35.2734 114.852 35.5721 114.109 36.1072 113.551C36.6422 112.993 37.3722 112.664 38.1448 112.631H39.2254C39.5693 112.634 39.8983 112.772 40.141 113.015C40.3837 113.259 40.5206 113.588 40.5221 113.932V117.317C40.5221 117.662 40.3856 117.992 40.1426 118.236C39.8996 118.479 39.5698 118.617 39.2254 118.619ZM38.1448 113.074C37.488 113.104 36.8682 113.386 36.4141 113.861C35.9601 114.336 35.7067 114.968 35.7067 115.625C35.7067 116.282 35.9601 116.913 36.4141 117.389C36.8682 117.864 37.488 118.146 38.1448 118.176H39.2254C39.4532 118.176 39.6717 118.085 39.8328 117.924C39.9939 117.763 40.0844 117.545 40.0844 117.317V113.932C40.083 113.705 39.992 113.487 39.8312 113.327C39.6704 113.166 39.4528 113.075 39.2254 113.074H38.1448Z" fill="black"/>
<path d="M69.1057 129.792H63.8703C63.6399 129.805 63.4091 129.771 63.1923 129.692C62.9755 129.613 62.7771 129.49 62.6093 129.332C62.4416 129.173 62.3079 128.982 62.2166 128.77C62.1252 128.559 62.0781 128.33 62.0781 128.1C62.0781 127.869 62.1252 127.641 62.2166 127.429C62.3079 127.217 62.4416 127.026 62.6093 126.868C62.7771 126.709 62.9755 126.586 63.1923 126.507C63.4091 126.428 63.6399 126.394 63.8703 126.407H69.1057C69.3362 126.394 69.5669 126.428 69.7837 126.507C70.0006 126.586 70.1989 126.709 70.3667 126.868C70.5345 127.026 70.6681 127.217 70.7595 127.429C70.8508 127.641 70.8979 127.869 70.8979 128.1C70.8979 128.33 70.8508 128.559 70.7595 128.77C70.6681 128.982 70.5345 129.173 70.3667 129.332C70.1989 129.49 70.0006 129.613 69.7837 129.692C69.5669 129.771 69.3362 129.805 69.1057 129.792Z" fill="#FEFFFF"/>
<path d="M69.1146 130.012H63.8792C63.6191 130.026 63.3589 129.987 63.1145 129.897C62.8701 129.807 62.6466 129.668 62.4576 129.489C62.2686 129.31 62.1181 129.094 62.0153 128.855C61.9124 128.616 61.8594 128.359 61.8594 128.098C61.8594 127.838 61.9124 127.581 62.0153 127.341C62.1181 127.102 62.2686 126.887 62.4576 126.708C62.6466 126.528 62.8701 126.39 63.1145 126.3C63.3589 126.21 63.6191 126.171 63.8792 126.184H69.1146C69.3746 126.171 69.6348 126.21 69.8792 126.3C70.1236 126.39 70.3471 126.528 70.5361 126.708C70.7251 126.887 70.8756 127.102 70.9784 127.341C71.0813 127.581 71.1343 127.838 71.1343 128.098C71.1343 128.359 71.0813 128.616 70.9784 128.855C70.8756 129.094 70.7251 129.31 70.5361 129.489C70.3471 129.668 70.1236 129.807 69.8792 129.897C69.6348 129.987 69.3746 130.026 69.1146 130.012ZM63.8792 126.627C63.6783 126.615 63.4771 126.644 63.2879 126.712C63.0987 126.781 62.9255 126.887 62.779 127.025C62.6325 127.163 62.5157 127.329 62.4359 127.514C62.3561 127.698 62.3149 127.897 62.3149 128.098C62.3149 128.299 62.3561 128.498 62.4359 128.683C62.5157 128.868 62.6325 129.034 62.779 129.172C62.9255 129.31 63.0987 129.416 63.2879 129.484C63.4771 129.553 63.6783 129.582 63.8792 129.57H69.1146C69.3154 129.582 69.5166 129.553 69.7058 129.484C69.895 129.416 70.0682 129.31 70.2147 129.172C70.3612 129.034 70.478 128.868 70.5578 128.683C70.6376 128.498 70.6788 128.299 70.6788 128.098C70.6788 127.897 70.6376 127.698 70.5578 127.514C70.478 127.329 70.3612 127.163 70.2147 127.025C70.0682 126.887 69.895 126.781 69.7058 126.712C69.5166 126.644 69.3154 126.615 69.1146 126.627H63.8792Z" fill="black"/>
<path d="M30.4477 126.843C30.4488 127.178 30.3502 127.506 30.1644 127.786C29.9786 128.065 29.7141 128.284 29.4042 128.413C29.0943 128.542 28.753 128.576 28.4235 128.511C28.0941 128.447 27.7913 128.286 27.5535 128.049C27.3157 127.812 27.1536 127.51 27.0877 127.181C27.0218 126.852 27.0551 126.511 27.1833 126.2C27.3116 125.89 27.529 125.625 27.8081 125.439C28.0872 125.252 28.4154 125.153 28.7512 125.153C29.2002 125.153 29.6309 125.33 29.9489 125.647C30.2669 125.964 30.4463 126.394 30.4477 126.843Z" fill="#FEFFFF"/>
<path d="M28.7358 128.783C28.3572 128.784 27.9867 128.673 27.671 128.464C27.3554 128.255 27.1087 127.957 26.9621 127.608C26.8155 127.259 26.7755 126.875 26.8472 126.503C26.9188 126.132 27.0989 125.79 27.3648 125.52C27.6307 125.251 27.9704 125.066 28.3412 124.989C28.7119 124.912 29.0972 124.947 29.4483 125.088C29.7994 125.23 30.1008 125.472 30.3143 125.785C30.5279 126.097 30.6442 126.466 30.6484 126.844C30.6513 127.097 30.604 127.349 30.5092 127.583C30.4144 127.818 30.2741 128.032 30.0962 128.212C29.9184 128.392 29.7067 128.535 29.4732 128.633C29.2397 128.731 28.9891 128.782 28.7358 128.783ZM28.7358 125.397C28.4429 125.397 28.1567 125.485 27.9136 125.648C27.6705 125.811 27.4815 126.043 27.3707 126.314C27.2599 126.585 27.2323 126.882 27.2915 127.169C27.3506 127.456 27.4938 127.718 27.7028 127.923C27.9118 128.128 28.1771 128.266 28.465 128.32C28.7528 128.374 29.0502 128.341 29.3192 128.225C29.5882 128.11 29.8167 127.916 29.9755 127.67C30.1342 127.425 30.2162 127.137 30.2108 126.844C30.2051 126.458 30.047 126.089 29.7709 125.818C29.4947 125.547 29.1228 125.396 28.7358 125.397Z" fill="black"/>
<path d="M136.52 150.912H2.6204C1.17319 150.912 0 152.085 0 153.531V154.254C0 155.7 1.17319 156.873 2.6204 156.873H136.52C137.967 156.873 139.14 155.7 139.14 154.254V153.531C139.14 152.085 137.967 150.912 136.52 150.912Z" fill="#FFBF00"/>
<path d="M22.1294 168.133C30.4247 168.133 37.1494 161.413 37.1494 153.123C37.1494 144.833 30.4247 138.113 22.1294 138.113C13.8341 138.113 7.10938 144.833 7.10938 153.123C7.10938 161.413 13.8341 168.133 22.1294 168.133Z" fill="black"/>
<path d="M28.6376 146.599C29.9278 147.889 30.8063 149.532 31.162 151.321C31.5178 153.109 31.3348 154.963 30.6362 156.648C29.9377 158.333 28.7549 159.773 27.2374 160.786C25.7199 161.799 23.9359 162.34 22.1109 162.34C20.286 162.34 18.502 161.799 16.9845 160.786C15.467 159.773 14.2842 158.333 13.5856 156.648C12.8871 154.963 12.7041 153.109 13.0598 151.321C13.4156 149.532 14.2941 147.889 15.5843 146.599C17.3157 144.87 19.6632 143.898 22.1109 143.898C24.5586 143.898 26.9062 144.87 28.6376 146.599Z" fill="white"/>
<path d="M22.1461 160.976C21.1117 160.979 20.0868 160.778 19.1303 160.385C18.1737 159.991 17.3042 159.413 16.5715 158.684C15.8388 157.954 15.2573 157.087 14.8603 156.132C14.4633 155.178 14.2586 154.154 14.2579 153.121C14.2571 153.086 14.2633 153.052 14.2761 153.021C14.2889 152.989 14.308 152.96 14.3322 152.936C14.3564 152.911 14.3853 152.892 14.4171 152.88C14.4489 152.867 14.483 152.861 14.5172 152.861C14.586 152.861 14.652 152.889 14.7006 152.937C14.7492 152.986 14.7765 153.052 14.7765 153.121C14.7773 154.086 14.9686 155.042 15.3395 155.934C15.7104 156.826 16.2537 157.635 16.9383 158.317C17.6228 158.999 18.4351 159.539 19.3288 159.906C20.2224 160.273 21.1798 160.461 22.1461 160.458C22.2149 160.458 22.2808 160.485 22.3295 160.534C22.3781 160.583 22.4054 160.649 22.4054 160.717C22.404 160.786 22.3763 160.851 22.3279 160.899C22.2796 160.947 22.2144 160.975 22.1461 160.976Z" fill="black"/>
<path d="M29.7141 153.382C29.6457 153.38 29.5805 153.353 29.5322 153.304C29.4839 153.256 29.4561 153.191 29.4547 153.123C29.4547 151.183 28.6864 149.322 27.3175 147.947C25.9487 146.572 24.0908 145.795 22.15 145.785C22.0812 145.785 22.0153 145.758 21.9666 145.709C21.918 145.66 21.8907 145.595 21.8907 145.526C21.8899 145.492 21.8962 145.458 21.9089 145.426C21.9217 145.394 21.9408 145.365 21.965 145.341C21.9892 145.317 22.0181 145.298 22.0499 145.285C22.0817 145.272 22.1158 145.266 22.15 145.267C24.2336 145.27 26.2309 146.098 27.7037 147.571C29.1764 149.044 30.0044 151.04 30.0058 153.123C30.0061 153.16 29.9985 153.196 29.9835 153.23C29.9685 153.264 29.9464 153.294 29.9188 153.318C29.8911 153.343 29.8586 153.361 29.8233 153.372C29.788 153.383 29.7507 153.386 29.7141 153.382Z" fill="black"/>
<path d="M22.1482 156.633C21.3343 156.633 20.5458 156.35 19.917 155.834C19.2882 155.318 18.858 154.599 18.6999 153.802C18.5417 153.004 18.6653 152.176 19.0496 151.459C19.4339 150.742 20.0551 150.18 20.8073 149.87C21.5596 149.559 22.3963 149.519 23.1749 149.756C23.9534 149.993 24.6257 150.492 25.077 151.169C25.5283 151.846 25.7308 152.658 25.65 153.468C25.5691 154.277 25.2099 155.033 24.6335 155.607C24.3072 155.933 23.9197 156.192 23.4932 156.368C23.0667 156.544 22.6096 156.634 22.1482 156.633ZM22.1482 150.127C21.5522 150.12 20.9673 150.29 20.4684 150.616C19.9695 150.942 19.5792 151.409 19.3472 151.958C19.1153 152.506 19.0523 153.112 19.1663 153.696C19.2802 154.281 19.566 154.819 19.9871 155.24C20.5495 155.802 21.3123 156.118 22.1077 156.118C22.9031 156.118 23.6659 155.802 24.2283 155.24C24.7908 154.678 25.1067 153.916 25.1067 153.121C25.1067 152.326 24.7908 151.564 24.2283 151.002C23.677 150.448 22.9297 150.134 22.1482 150.127Z" fill="black"/>
<path d="M114.411 168.133C122.706 168.133 129.431 161.413 129.431 153.123C129.431 144.833 122.706 138.113 114.411 138.113C106.115 138.113 99.3906 144.833 99.3906 153.123C99.3906 161.413 106.115 168.133 114.411 168.133Z" fill="black"/>
<path d="M120.934 146.599C122.225 147.889 123.103 149.532 123.459 151.321C123.815 153.109 123.632 154.963 122.933 156.648C122.235 158.333 121.052 159.773 119.534 160.786C118.017 161.799 116.233 162.34 114.408 162.34C112.583 162.34 110.799 161.799 109.281 160.786C107.764 159.773 106.581 158.333 105.883 156.648C105.184 154.963 105.001 153.109 105.357 151.321C105.712 149.532 106.591 147.889 107.881 146.599C109.613 144.87 111.96 143.898 114.408 143.898C116.856 143.898 119.203 144.87 120.934 146.599Z" fill="white"/>
<path d="M114.4 160.976C112.316 160.974 110.318 160.145 108.845 158.672C107.371 157.2 106.542 155.203 106.539 153.121C106.539 153.052 106.566 152.986 106.615 152.937C106.664 152.889 106.73 152.861 106.798 152.861C106.833 152.861 106.867 152.867 106.899 152.88C106.93 152.892 106.959 152.911 106.983 152.936C107.008 152.96 107.027 152.989 107.039 153.021C107.052 153.052 107.058 153.086 107.058 153.121C107.061 155.066 107.835 156.93 109.211 158.306C110.588 159.681 112.454 160.455 114.4 160.458C114.435 160.457 114.469 160.464 114.5 160.476C114.532 160.489 114.561 160.508 114.585 160.532C114.61 160.557 114.629 160.585 114.641 160.617C114.654 160.649 114.66 160.683 114.66 160.717C114.66 160.786 114.632 160.852 114.584 160.901C114.535 160.949 114.469 160.976 114.4 160.976Z" fill="black"/>
<path d="M122.002 153.382C121.933 153.382 121.867 153.354 121.818 153.306C121.77 153.257 121.742 153.191 121.742 153.123C121.741 151.177 120.967 149.311 119.59 147.936C118.214 146.56 116.347 145.786 114.4 145.785C114.332 145.784 114.266 145.756 114.218 145.707C114.17 145.659 114.142 145.594 114.141 145.526C114.141 145.457 114.168 145.391 114.217 145.343C114.265 145.294 114.331 145.267 114.4 145.267C116.484 145.268 118.483 146.096 119.957 147.569C121.431 149.042 122.26 151.039 122.261 153.123C122.26 153.191 122.232 153.256 122.184 153.304C122.135 153.353 122.07 153.38 122.002 153.382Z" fill="black"/>
<path d="M114.406 156.633C113.592 156.633 112.804 156.35 112.175 155.834C111.546 155.318 111.116 154.599 110.958 153.802C110.8 153.004 110.923 152.176 111.307 151.459C111.692 150.742 112.313 150.18 113.065 149.87C113.817 149.559 114.654 149.519 115.433 149.756C116.211 149.993 116.883 150.492 117.335 151.169C117.786 151.846 117.989 152.658 117.908 153.468C117.827 154.277 117.468 155.033 116.891 155.607C116.565 155.934 116.178 156.193 115.751 156.369C115.325 156.545 114.868 156.635 114.406 156.633ZM114.406 150.127C113.813 150.126 113.232 150.3 112.738 150.629C112.244 150.958 111.859 151.426 111.632 151.974C111.405 152.522 111.346 153.126 111.463 153.707C111.58 154.289 111.867 154.822 112.288 155.24C112.856 155.773 113.61 156.063 114.388 156.051C115.167 156.038 115.911 155.723 116.461 155.172C117.011 154.621 117.326 153.878 117.338 153.1C117.349 152.321 117.058 151.569 116.524 151.002C116.247 150.723 115.917 150.502 115.553 150.352C115.189 150.201 114.799 150.125 114.406 150.127Z" fill="black"/>
<path d="M9.85657 132.004C8.01419 133.851 5.53427 134.412 3.85938 133.478C6.04202 130.694 8.53435 128.167 11.2883 125.946C12.2825 127.588 11.726 130.142 9.85657 132.004Z" fill="white"/>
<path d="M3.85938 133.478C6.04202 130.694 8.53435 128.167 11.2883 125.946L3.85938 133.478Z" fill="#FEFFFF"/>
<path d="M3.8751 133.699C3.83396 133.699 3.79377 133.687 3.75903 133.665C3.7243 133.643 3.69639 133.612 3.67844 133.575C3.66049 133.538 3.65321 133.496 3.65741 133.455C3.6616 133.414 3.67712 133.376 3.70221 133.343C5.89391 130.546 8.39919 128.01 11.169 125.784C11.2152 125.752 11.2719 125.738 11.3276 125.746C11.3834 125.755 11.4339 125.784 11.469 125.828C11.5041 125.872 11.5211 125.927 11.5166 125.983C11.512 126.039 11.4863 126.092 11.4445 126.13C8.70085 128.333 6.21912 130.844 4.04799 133.613C4.02732 133.639 4.0011 133.661 3.97121 133.675C3.94132 133.69 3.90851 133.699 3.8751 133.699Z" fill="black"/>
<path d="M68.7615 146.038H54.4763C52.6472 146.046 50.8583 145.502 49.3435 144.478C47.9153 143.518 46.8679 142.089 46.3828 140.439L41.5958 123.388C41.5868 123.359 41.5839 123.328 41.5873 123.297C41.5907 123.267 41.6002 123.237 41.6154 123.21C41.6305 123.184 41.651 123.16 41.6755 123.142C41.7 123.123 41.728 123.109 41.7579 123.102C41.8181 123.085 41.8824 123.093 41.937 123.123C41.9916 123.154 42.0321 123.204 42.0496 123.264L46.8204 140.309C47.2771 141.854 48.2593 143.191 49.5975 144.089C51.034 145.056 52.728 145.57 54.4601 145.563H68.7453C73.8132 145.563 77.9302 141.945 77.9302 137.502V93.4871C77.9316 93.425 77.9573 93.3659 78.0017 93.3225C78.0461 93.2792 78.1058 93.2549 78.1679 93.2549C78.2295 93.2549 78.2886 93.2793 78.3322 93.3229C78.3758 93.3664 78.4002 93.4255 78.4002 93.4871V137.507C78.4165 142.21 74.0887 146.038 68.7615 146.038Z" fill="black"/>
<path d="M115.02 125.089H113.788C113.405 125.03 113.057 124.836 112.805 124.542C112.553 124.249 112.414 123.875 112.414 123.488C112.414 123.101 112.553 122.727 112.805 122.433C113.057 122.14 113.405 121.946 113.788 121.887H115.02C115.251 121.851 115.487 121.866 115.712 121.93C115.936 121.994 116.145 122.106 116.322 122.258C116.499 122.411 116.642 122.599 116.739 122.811C116.837 123.024 116.888 123.254 116.888 123.488C116.888 123.722 116.837 123.952 116.739 124.165C116.642 124.377 116.499 124.565 116.322 124.717C116.145 124.869 115.936 124.981 115.712 125.046C115.487 125.11 115.251 125.124 115.02 125.089ZM113.788 122.33C113.48 122.33 113.185 122.452 112.967 122.67C112.749 122.887 112.626 123.183 112.626 123.491C112.626 123.799 112.749 124.094 112.967 124.311C113.185 124.529 113.48 124.651 113.788 124.651H115.02C115.328 124.651 115.623 124.529 115.841 124.311C116.059 124.094 116.182 123.799 116.182 123.491C116.182 123.183 116.059 122.887 115.841 122.67C115.623 122.452 115.328 122.33 115.02 122.33H113.788Z" fill="black"/>
<path d="M127.146 117.083C127.106 117.083 127.068 117.072 127.034 117.051C127.001 117.03 126.974 117 126.957 116.964C126.913 116.888 122.726 109.324 118.852 103.466C113.822 95.9069 109.527 92.9913 109.484 92.9643C109.434 92.9321 109.4 92.8816 109.388 92.8239C109.375 92.7661 109.387 92.706 109.419 92.6566C109.451 92.6072 109.502 92.5726 109.56 92.5604C109.617 92.5483 109.677 92.5596 109.727 92.5918C109.77 92.6242 114.141 95.5614 119.22 103.223C123.115 109.097 127.324 116.678 127.351 116.753C127.365 116.779 127.374 116.806 127.378 116.835C127.381 116.863 127.379 116.892 127.371 116.92C127.362 116.948 127.349 116.974 127.331 116.996C127.313 117.018 127.29 117.037 127.265 117.05C127.23 117.074 127.188 117.085 127.146 117.083Z" fill="black"/>
<path d="M134.687 121.445H118.381C118.349 121.45 118.317 121.448 118.286 121.439C118.255 121.431 118.227 121.415 118.203 121.395C118.178 121.374 118.159 121.348 118.145 121.319C118.132 121.29 118.125 121.258 118.125 121.226C118.125 121.194 118.132 121.163 118.145 121.134C118.159 121.105 118.178 121.079 118.203 121.058C118.227 121.037 118.255 121.022 118.286 121.013C118.317 121.005 118.349 121.003 118.381 121.008H134.687C134.719 121.003 134.751 121.005 134.782 121.013C134.812 121.022 134.841 121.037 134.865 121.058C134.89 121.079 134.909 121.105 134.923 121.134C134.936 121.163 134.943 121.194 134.943 121.226C134.943 121.258 134.936 121.29 134.923 121.319C134.909 121.348 134.89 121.374 134.865 121.395C134.841 121.415 134.812 121.431 134.782 121.439C134.751 121.448 134.719 121.45 134.687 121.445Z" fill="black"/>
<path d="M135.402 118.026H131.831C131.772 118.026 131.716 118.002 131.674 117.961C131.633 117.919 131.609 117.863 131.609 117.804C131.609 117.746 131.633 117.689 131.674 117.648C131.716 117.606 131.772 117.583 131.831 117.583H135.381C135.439 117.583 135.496 117.606 135.537 117.648C135.579 117.689 135.602 117.746 135.602 117.804C135.602 117.86 135.582 117.913 135.545 117.954C135.508 117.995 135.457 118.02 135.402 118.026Z" fill="black"/>
<path d="M155.801 127.314H139.284C139.225 127.314 139.169 127.291 139.127 127.249C139.086 127.207 139.062 127.151 139.062 127.092C139.062 127.034 139.086 126.977 139.127 126.936C139.169 126.894 139.225 126.871 139.284 126.871H155.801C155.859 126.872 155.915 126.896 155.956 126.937C155.997 126.979 156.021 127.034 156.022 127.092C156.022 127.151 155.999 127.207 155.957 127.249C155.916 127.291 155.859 127.314 155.801 127.314Z" fill="black"/>
<path d="M106.178 87.5484H54.3429C53.4472 87.547 52.5787 87.2402 51.8812 86.6786C51.1837 86.117 50.6988 85.3344 50.5069 84.46C48.3457 71.2912 47.5407 55.8007 46.2656 38.6095C46.2923 37.6862 46.6429 36.8017 47.2563 36.1108C47.8697 35.4198 48.7067 34.9665 49.6208 34.83C58.4042 33.6212 67.256 32.9755 76.122 32.8971C78.791 32.8485 81.4816 32.8377 84.156 32.8701C94.3351 32.9889 104.325 33.6584 112.321 34.8786C113.233 35.0174 114.068 35.4717 114.679 36.1625C115.29 36.8532 115.639 37.7364 115.666 38.6581C114.817 50.4123 111.992 73.154 109.939 84.7624C109.698 85.5708 109.201 86.2794 108.523 86.7817C107.845 87.284 107.022 87.5531 106.178 87.5484Z" fill="#FFBB00"/>
<path d="M82.5616 33.3115V87.0719C82.5616 87.6982 82.3076 88.2057 81.9943 88.2057H78.3095C77.9961 88.2057 77.7422 87.6982 77.7422 87.0719V33.3331C77.7422 32.7121 77.9907 32.2046 78.2825 32.1992C79.5143 32.1668 80.7516 32.1614 81.9835 32.1992C82.3076 32.183 82.5616 32.6905 82.5616 33.3115Z" fill="#FF8E3D"/>
<path d="M77.0637 31.7146C69.8346 31.7146 63.1404 27.9351 60.3147 25.7214C56.6894 22.8544 54.3716 19.1397 53.7826 15.2576C53.5503 13.7404 53.5719 11.6293 54.9713 10.2147C56.268 8.90271 58.4291 8.59495 60.9144 9.29686C64.7289 10.4253 68.2029 13.1681 71.5527 17.6819C72.6603 19.1775 73.6869 20.7541 74.681 22.2821C76.04 24.4688 77.5303 26.5711 79.1438 28.5776C79.2473 28.7225 79.2924 28.901 79.27 29.0776C79.2477 29.2542 79.1595 29.4159 79.0231 29.5304C78.8867 29.6449 78.7121 29.7038 78.5342 29.6953C78.3563 29.6868 78.1881 29.6116 78.0632 29.4847C76.4126 27.4373 74.888 25.2917 73.4978 23.0596C72.5144 21.5532 71.4987 19.9874 70.4127 18.5296C67.2574 14.2588 64.0157 11.6833 60.5038 10.6467C59.7798 10.4361 57.3215 9.84218 55.9816 11.1866C54.9389 12.2395 55.0307 14.0482 55.182 15.0309C55.7223 18.5566 57.851 21.9581 61.1954 24.6038C63.8698 26.7149 70.2182 30.2892 77.0583 30.2892C77.2346 30.3046 77.3987 30.3855 77.5183 30.516C77.6379 30.6464 77.7042 30.8169 77.7042 30.9938C77.7042 31.1707 77.6379 31.3412 77.5183 31.4716C77.3987 31.602 77.2346 31.6829 77.0583 31.6984L77.0637 31.7146Z" fill="#2E0000"/>
<path d="M88.6024 32.286C87.3334 32.2886 86.0671 32.1711 84.8204 31.935C84.6401 31.8974 84.482 31.7899 84.3808 31.6361C84.2795 31.4823 84.2433 31.2947 84.2801 31.1143C84.3191 30.9349 84.4269 30.7778 84.5804 30.6769C84.7339 30.5759 84.9209 30.5392 85.1013 30.5744C90.4123 31.5895 96.4474 29.9643 99.7755 28.026C103.104 26.0876 105.087 23.253 105.13 20.2726C105.173 19.6666 105.058 19.0598 104.795 18.5117C104.533 17.9636 104.132 17.4932 103.633 17.1465C102.477 16.3852 100.618 16.1962 98.6733 16.6497C95.5073 17.3786 92.7302 19.1874 90.2665 22.1786C89.4182 23.1774 88.6024 24.2843 87.8514 25.3371C86.7603 26.9364 85.5541 28.454 84.2422 29.8779C84.1784 29.9446 84.102 29.998 84.0175 30.0351C83.933 30.0723 83.842 30.0925 83.7497 30.0945C83.6573 30.0965 83.5655 30.0803 83.4795 30.0468C83.3934 30.0134 83.3148 29.9633 83.2481 29.8995C83.1814 29.8357 83.128 29.7594 83.0908 29.6749C83.0536 29.5905 83.0334 29.4995 83.0314 29.4073C83.0294 29.315 83.0456 29.2233 83.0791 29.1373C83.1126 29.0513 83.1626 28.9727 83.2265 28.906C84.4904 27.527 85.655 26.0601 86.7114 24.5164C87.4948 23.4366 88.3052 22.2974 89.1859 21.2391C91.8873 17.9995 94.8859 16.0396 98.3708 15.2405C99.4838 14.9814 102.299 14.5386 104.422 15.9316C105.128 16.4009 105.698 17.0464 106.078 17.804C106.457 18.5617 106.631 19.4053 106.583 20.251C106.497 23.7552 104.271 27.0163 100.489 29.2192C96.8377 31.1988 92.756 32.2519 88.6024 32.286Z" fill="#2E0000"/>
<path d="M80.7141 30.8864C80.6446 30.8881 80.5754 30.879 80.5088 30.8594C80.3299 30.8045 80.1801 30.6812 80.092 30.5163C80.004 30.3513 79.9848 30.1583 80.0387 29.9793C80.0657 29.8983 80.0927 29.8119 80.1143 29.7309C79.9408 29.7945 79.7493 29.7878 79.5807 29.7121C79.4121 29.6364 79.2798 29.4979 79.2121 29.326C77.7639 25.7693 76.5422 22.1248 75.5543 18.4141C74.4737 14.0461 72.8529 7.44818 76.6349 3.03159C77.3154 2.22079 78.1689 1.57252 79.1328 1.13434C80.0967 0.696157 81.1465 0.479183 82.2053 0.499332C82.8988 0.539489 83.5721 0.747766 84.167 1.10617C84.7619 1.46458 85.2606 1.96234 85.6199 2.55645C87.2408 5.1427 87.9593 8.56583 87.5757 12.2049C87.2191 15.5741 86.0089 18.819 84.8743 21.5564C84.5717 22.28 84.2584 23.0035 83.9504 23.7162C82.9749 25.8853 82.1181 28.1059 81.384 30.368C81.344 30.5155 81.257 30.646 81.1361 30.7395C81.0151 30.8331 80.867 30.8846 80.7141 30.8864ZM81.8595 1.90854C81.0677 1.9491 80.2926 2.15108 79.5818 2.50206C78.871 2.85304 78.2395 3.3456 77.7263 3.94946C74.4197 7.81533 75.9271 13.9921 76.9212 18.0793C77.8876 21.6802 79.0804 25.2166 80.4925 28.6673C81.1355 26.7937 81.9189 24.9634 82.6537 23.187C82.9617 22.4689 83.2696 21.7454 83.5722 21.0273C84.6528 18.3871 85.8306 15.2555 86.171 12.0699C86.5222 8.744 85.9008 5.63943 84.4258 3.32315C84.1863 2.91612 83.8499 2.57451 83.4465 2.32867C83.0431 2.08283 82.5852 1.94037 82.1134 1.91394L81.8595 1.90854Z" fill="#2E0000"/>
<path d="M84.8977 83.6991C84.7114 83.6991 84.5328 83.6252 84.401 83.4935C84.2693 83.3619 84.1953 83.1834 84.1953 82.9972V34.7224C84.1953 34.5363 84.2693 34.3577 84.401 34.2261C84.5328 34.0945 84.7114 34.0205 84.8977 34.0205C85.084 34.0205 85.2626 34.0945 85.3943 34.2261C85.5261 34.3577 85.6001 34.5363 85.6001 34.7224V82.9972C85.6001 83.1834 85.5261 83.3619 85.3943 83.4935C85.2626 83.6252 85.084 83.6991 84.8977 83.6991Z" fill="#2E0000"/>
<path d="M148.321 42.3237C143.458 42.3237 138.001 40.7526 131.999 37.6156C130.043 36.5951 128.098 35.4559 126.212 34.376C121.393 31.6008 116.411 28.7284 111.003 27.3894C104.811 25.8776 98.2091 26.4175 93.1412 27.0654C88.7379 27.6054 86.2256 29.0686 85.6691 31.3363C85.6239 31.5174 85.5086 31.6732 85.3485 31.7694C85.1884 31.8656 84.9967 31.8943 84.8154 31.8492C84.6341 31.8041 84.4782 31.6889 84.382 31.5289C84.2857 31.3689 84.257 31.1772 84.3021 30.9961C85.0099 28.1129 87.9275 26.3203 92.9467 25.667C98.1335 25.0029 104.914 24.4414 111.317 26.0288C116.919 27.4164 121.987 30.3482 126.888 33.1666C128.762 34.2465 130.697 35.3587 132.625 36.3684C141.27 40.8929 148.699 42.0484 154.675 39.8077C156.489 39.2058 158.093 38.0987 159.3 36.6167C159.868 35.9142 160.257 35.0846 160.435 34.199C160.613 33.3133 160.574 32.3978 160.321 31.5306C159.57 29.3709 157.284 27.8537 153.335 26.9413C151.449 26.5093 149.466 26.1962 147.727 26.8279C146.165 27.3948 144.798 29.0848 145.241 30.6883C145.291 30.8681 145.268 31.0603 145.176 31.2228C145.085 31.3853 144.932 31.5048 144.752 31.5549C144.572 31.605 144.38 31.5817 144.217 31.4901C144.055 31.3984 143.935 31.246 143.885 31.0663C143.21 28.6366 145.101 26.2879 147.24 25.5051C149.38 24.7222 151.563 25.0893 153.654 25.5698C158.116 26.6011 160.731 28.3991 161.655 31.0717C161.987 32.1545 162.052 33.3014 161.844 34.4146C161.636 35.5278 161.161 36.5741 160.461 37.4644C159.095 39.1598 157.273 40.4299 155.21 41.1251C153.005 41.9372 150.671 42.3433 148.321 42.3237Z" fill="#2E0000"/>
<path d="M21.0998 43.9755C19.923 43.9817 18.7514 43.8199 17.6204 43.4949C13.217 42.2153 9.18108 37.3452 10.494 32.3994C10.516 32.3104 10.5556 32.2267 10.6103 32.1531C10.6651 32.0795 10.7339 32.0175 10.8129 31.9708C10.8918 31.9241 10.9793 31.8935 11.0702 31.8809C11.161 31.8683 11.2535 31.8739 11.3422 31.8973C11.4351 31.9163 11.5232 31.954 11.6012 32.0079C11.6791 32.0619 11.7453 32.131 11.7958 32.2113C11.8463 32.2915 11.88 32.3811 11.8949 32.4747C11.9098 32.5683 11.9056 32.6639 11.8825 32.7558C10.8019 36.9186 14.2598 41.0437 18.0418 42.1451C21.6996 43.225 26.1461 42.2531 30.2631 39.5265C33.1483 37.5989 35.6552 35.0559 38.1027 32.5398C38.7673 31.8649 39.4264 31.19 40.0964 30.5259C43.1328 27.4969 46.85 24.2574 51.4424 22.8158C55.5648 21.5253 60.422 21.7683 65.1225 23.5015C68.9045 24.8999 72.6055 27.173 76.7603 30.6555C76.8398 30.7122 76.9066 30.7847 76.9566 30.8685C77.0067 30.9522 77.0388 31.0454 77.0511 31.1422C77.0633 31.239 77.0554 31.3372 77.0278 31.4308C77.0003 31.5244 76.9536 31.6112 76.8908 31.6859C76.828 31.7606 76.7505 31.8215 76.663 31.8648C76.5755 31.9081 76.4801 31.9329 76.3826 31.9375C76.285 31.9421 76.1876 31.9266 76.0965 31.8918C76.0053 31.857 75.9222 31.8037 75.8526 31.7353C71.8275 28.3554 68.2886 26.1579 64.6363 24.8243C60.2275 23.2045 55.6891 22.9615 51.8639 24.1548C47.5415 25.5046 44.0027 28.6362 41.0905 31.5248C40.4277 32.1835 39.7668 32.8512 39.1076 33.5279C36.6223 36.0655 34.0505 38.6896 31.0033 40.6981C28.0928 42.7328 24.6503 43.872 21.0998 43.9755Z" fill="#2E0000"/>
</g>
<defs>
<clipPath id="clip0_17672_54743">
<rect width="162" height="171" fill="white" transform="translate(0 0.5)"/>
</clipPath>
</defs>
</svg>
