<svg width="122" height="123" viewBox="0 0 122 123" fill="none" xmlns="http://www.w3.org/2000/svg">
<path d="M41.2542 13.0357L47.3748 9.68433L73.9433 24.4529L65.3904 31.4481L62.3833 46.8659L67.2279 50.529L80.9551 50.7004L87.9609 57.7886L80.7837 72.2761L80.4447 79.145L61.7971 92.9127L43.3635 104.661L39.1708 102.39L33.4556 90.7336L30.9116 76.0362L12.1138 68.8303L11.1954 65.6504L14.9502 58.5629L15.0233 51.1364L16.5983 48.9839L16.6647 48.3505L16.3099 47.04L17.6084 45.0124L19.757 44.207L22.3441 41.5109L20.6508 38.4127L20.9764 35.7717L28.2215 29.9182L28.7651 26.2532L29.8835 25.1593L29.2854 22.5841L30.6225 19.3092L36.1537 17.7322L41.2542 13.0357Z" fill="#C47129"/>
<path d="M42.5469 29.9417L41.6497 26.7046L37.5779 23.2881L36.7951 27.0096L34.1189 29.2226L38.4685 30.1324L38.5475 32.3919L40.0249 32.4943L42.5469 29.9417Z" fill="#900000"/>
<path d="M29.9731 41.7046C29.9731 41.7046 28.0611 41.8635 27.7634 41.6847C27.4657 41.5059 27.3308 38.8876 27.3308 38.8876L23.267 37.6448L21.7299 35.6897L21.25 38.1047L22.8556 41.4315L23.5288 41.8548L24.7775 41.4561L26.2788 42.2576L27.5414 44.1801L29.6056 43.9097L30.3047 42.4051L29.9731 41.7046Z" fill="#900000"/>
<path d="M23.2969 48.4552L20.6891 45.2307L18.8775 45.6295L18.2608 46.8436L16.8274 47.043L16.6885 48.4386L22.4609 50.3658L23.2969 48.4552Z" fill="#900000"/>
<path d="M80.8984 70.027L76.7529 65.6003L66.4442 71.8319L60.4751 68.1828L53.5796 70.5965L55.6517 75.0777L42.8921 79.0996L32.0139 74.7135L33.6753 90.2423L39.6298 102.271L43.5082 103.522L79.4111 79.3056L79.4264 72.3749L80.8984 70.027Z" fill="#030245"/>
<path d="M40.2147 13.8759C39.9807 14.5311 41.5066 12.8704 43.796 12.8185C50.6277 12.6637 60.4433 17.2219 66.0728 21.2864C71.7023 25.3509 65.3484 28.5035 63.4391 29.4698C61.3158 30.5444 64.224 33.9755 63.5182 39.0395C62.8124 44.1035 61.4202 45.5628 61.0653 46.4035C60.6353 47.4223 63.2085 49.394 65.4102 51.835C67.4039 54.0453 68.3516 51.6203 72.4213 52.6504C75.6425 53.4651 76.7749 50.6693 79.2849 52.1965C81.264 53.4027 81.7956 54.779 81.3305 57.935C81.1198 59.3811 79.8365 61.4146 77.5292 63.8802C76.1409 65.3641 83.7634 72.4763 85.1583 65.8512C85.5418 64.0297 104.564 48.7813 99.2404 29.3628C98.0515 25.0245 93.8123 17.9204 82.4994 10.7225C71.1866 3.52464 49.4441 -1.79584 44.8958 1.39206C40.3934 4.55006 41.9924 8.90228 40.2147 13.8759Z" fill="#380505"/>
<path d="M68.7016 55.8759L68.0191 59.3316L64.3953 61.0103L66.359 61.8703L68.5521 59.9191L69.9364 60.3471L70.3677 62.2411L71.0987 59.6719L72.4278 58.6452L73.2253 61.2482L72.2497 62.9096L75.423 61.4038L72.9309 57.8151L72.271 56.0208L74.3577 56.4474L75.8862 55.0758L77.7443 54.1002L78.0101 57.9906L75.6137 63.2313L71.7506 64.1059L71.0196 65.6051L75.2502 65.2064L79.4642 60.282L80.3281 55.2413L78.2308 52.9705L72.4491 54.2331L70.9259 55.9377L68.7016 55.8759Z" fill="#030245"/>
<path d="M52.8594 34.2686L47.5542 27.1106L41.5558 22.9238L37.4867 23.2561L37.0275 25.7595L41.183 27.169L49.3412 33.0916L52.8594 34.2686Z" fill="#030245"/>
<path d="M32.9604 25.6697L33.625 21.1812L31.3442 20.2329L29.9327 23.042L32.1922 23.8986L32.9604 25.6697Z" fill="#030245"/>
<path d="M32.3906 28.115L31.0841 27.5408L29.9543 27.6159L29.7031 29.9538L30.3797 30.3399L32.3906 28.115Z" fill="#380505"/>
<path d="M45.9844 34.0861L43.2823 31.8232L41.9777 33.3517L43.1301 34.7473L45.5684 35.4032L45.9844 34.0861Z" fill="#380505"/>
<path d="M50.6016 38.5266L42.0852 29.5198L39.5014 31.6869L38.4966 31.5394L39.2196 33.1888L42.0706 33.4546L43.5479 32.1149L45.8373 34.1956L45.4692 35.4031L50.6016 38.5266Z" fill="#030245"/>
<path d="M32.5547 27.964L31.0136 26.2866L29.2551 26.8409L28.7441 29.8573L29.812 30.0361L29.9941 27.6277L31.179 27.649L31.9978 28.5581L32.5547 27.964Z" fill="#030245"/>
<path d="M29.9297 43.0413L29.3907 43.8075L27.6961 43.957L27.0242 43.2925L29.9297 43.0413Z" fill="#030245"/>
<path d="M27.2734 41.4092L26.476 38.9364L23.1133 38.8201L23.5898 40.1698L25.713 41.1533L27.2734 41.4092Z" fill="#030245"/>
<path d="M27.2422 54.0503L26.4447 51.0358L22.9737 48.1842L22.2427 49.9121L19.2681 48.6095L18.6441 47.2698L17.947 47.8745L17.7941 48.6315L16.6577 48.3597L16.5687 49.0049L18.4075 49.288L21.2837 50.4431L27.2422 54.0503Z" fill="#030245"/>
<path d="M17.1459 52.2479L15.3775 51.9336V58.9188L19.5848 60.0233L24.0234 59.7681L17.1459 52.2479Z" fill="#900000"/>
<path d="M12.3256 64.9281L15.6657 64.5772L19.786 68.1147L29.7544 68.9786L36.1675 63.6382L45.4713 65.6265L53.8023 62.3569L61.8973 59.4182L62.7739 62.3263L62.2834 66.1143L66.0402 69.4571L73.5763 67.6541L66.5765 72.3207L60.4625 68.7274L54.4888 70.8739L57.7558 75.7252L43.3348 80.2987L35.1706 79.4634L35.8711 86.5563L44.1309 92.1559L54.1173 89.6312L76.6094 80.7194L42.3107 102.372L40.3509 101.859L34.7021 88.0927L33.3491 86.9264L31.8558 75.0268L22.2861 71.9033L13.0932 68.4031L12.3256 64.9281Z" fill="#380505"/>
<path d="M42.9609 108.857L38.741 102.329L34.5875 105.268L33.9229 107.328L24.8849 126.581L31.7744 126.461L37.8445 111.183L42.9609 108.857Z" fill="#3E3D8F"/>
<path d="M80.7328 79.5298L49.8021 126.203L121.375 127.133C121.375 127.133 122.921 111.366 113.932 101.946C104.944 92.526 85.4226 89.4524 85.4226 89.4524L80.7328 79.5298Z" fill="#4C4CB1"/>
<path d="M33.2774 90.8682C33.2774 90.8682 12.3111 97.2313 4.81416 103.208C2.1692 105.316 0.118362 107.626 0.334347 113.458C0.550327 119.289 5.67809 126.535 5.67809 126.535L24.4187 126.468L33.7891 105.401L33.2774 90.8682Z" fill="#3E3D8F"/>
<path d="M43.0109 109.143L39.1684 111.403L32.6198 126.55L48.8438 126.186L43.0109 109.143Z" fill="#F9F905"/>
<path d="M28.3898 32.2039L26.4858 36.2377L29.3906 38.1444L27.2095 38.2706L25.2278 37.1602L23.5418 34.9625L28.3898 32.2039Z" fill="#F9F905"/>
<path d="M28.9018 31.9473L33.1371 28.9043L33.6953 25.8845L33.0972 26.1503L32.539 28.7136L28.9018 31.9473Z" fill="#F9F905"/>
<path d="M30.9766 29.1988L30.3785 28.7734L30.0522 29.9471L30.9766 29.1988Z" fill="#F9F905"/>
<path d="M44.9766 34.1218L44.3785 33.4207L43.6355 33.8686L44.9766 34.1218Z" fill="#F9F905"/>
<path d="M22.8952 47.5644L22.0891 44.7154L23.7266 42.6845L23.1112 42.428L20.5672 44.6403L22.8952 47.5644Z" fill="#F9F905"/>
<path d="M35.3775 34.7124L31.6833 37.3301L33.3247 42.5988L43.5231 45.5408L45.8125 40.8463L37.1732 38.9855L35.3775 34.7124Z" fill="#F9F905"/>
<path d="M29.774 45.3088L27.3815 44.7852L30.1641 49.2543L29.774 45.3088Z" fill="#F9F905"/>
<path d="M57.2266 31.9235L53.1574 32.9794L48.7906 26.6216L57.2266 31.9235Z" fill="#F9F905"/>
<path d="M41.7122 13.917L37.3308 17.8585L33.3826 19.4189L34.3675 21.4591L33.6205 24.4377L36.308 24.6144L37.9787 22.6141L41.0231 22.1742L41.7647 19.9851L46.9782 21.9901L49.9688 20.3612L46.6134 16.972L48.9646 14.9344L41.7122 13.917Z" fill="#F9F905"/>
<path d="M21.4922 51.3849L16.9021 49.5122L15.5483 51.3285L18.1082 52.2834L21.4922 51.3849Z" fill="#F9F905"/>
<path d="M15.8828 61.422L15.2435 60.5288L13.8034 62.3896L15.8828 61.422Z" fill="#F9F905"/>
<path d="M73.1641 66.3912L67.9559 66.5826L63.9931 62.8245L63.082 64.3643L66.4148 68.0114L73.1641 66.3912Z" fill="#F9F905"/>
<path d="M77.3672 55.2458L75.4752 55.7988L75.0206 57.211L73.4921 56.7597L75.3024 58.9003L75.7144 60.789L77.3672 55.2458Z" fill="#F9F905"/>
<path d="M73.5049 53.0592L78.0738 52.0776L80.732 53.5397L81.0078 54.6854L79.9365 53.8214L77.9807 52.6691L74.1894 53.6659L73.5049 53.0592Z" fill="#F9F905"/>
<path d="M69.4429 61.2135L68.3889 61.0806L67.0598 61.9997L68.6614 62.5838L66.1414 62.928L65.2688 62.2429L65.7247 63.5581L70.1773 63.8837L71 62.7918L69.8656 62.5712L69.4429 61.2135Z" fill="#F9F905"/>
<path d="M60.9488 48.7275L65.5469 53.2419L62.2447 60.685L54.2606 64.5308L45.4406 67.3313L36.5786 65.2831L29.5562 70.6335L18.4793 68.8777L14.5497 66.0354L13.3794 62.9L17.0578 63.2323L18.5623 65.4918L24.4145 67.3313L32.8584 62.7751L30.4341 57.9237L31.5206 55.1645L35.1159 56.0842L40.0064 59.8889L51.2508 57.5476L60.9488 48.7275Z" fill="#A94C02"/>
<path d="M42.5596 109.412L43.0541 109.165L48.8438 126.238L45.1222 118.54L42.5596 109.412Z" fill="#1B1B84"/>
<path d="M43.8203 36.1958L39.6336 33.6838L37.9456 33.2625L42.6434 37.4206L43.8203 36.1958Z" fill="#A94C02"/>
<path d="M32.4168 27.2515L32.8594 25.7762L32.0752 24.1407L30.6603 23.5293L30.255 25.4599L31.1907 25.7469L32.4168 27.2515Z" fill="#900000"/>
<path d="M79.8594 80.0356L43.7072 104.138L40.0162 102.849L43.3231 107.868L46.3389 117.716L49.4211 126.223L79.8594 80.0356Z" fill="#F9F905"/>
<path d="M38.2734 101.594L33.8448 92.5203L34.0315 104.983L38.2734 101.594Z" fill="#F9F905"/>
</svg>
