<svg width="26" height="26" viewBox="0 0 26 26" fill="none" xmlns="http://www.w3.org/2000/svg">
<path fill-rule="evenodd" clip-rule="evenodd" d="M22.566 22.566C18.2351 26.8967 7.57896 26.8967 3.24812 22.566C-1.08271 18.2351 -1.08271 7.57896 3.24812 3.24812C7.57896 -1.08271 18.2351 -1.08271 22.566 3.24812C26.8967 7.57896 26.8967 18.2351 22.566 22.566Z" fill="#232323"/>
<mask id="mask0_16966_5985" style="mask-type:luminance" maskUnits="userSpaceOnUse" x="0" y="0" width="26" height="26">
<path fill-rule="evenodd" clip-rule="evenodd" d="M22.566 22.566C18.2351 26.8967 7.57896 26.8967 3.24812 22.566C-1.08271 18.2351 -1.08271 7.57896 3.24812 3.24812C7.57896 -1.08271 18.2351 -1.08271 22.566 3.24812C26.8967 7.57896 26.8967 18.2351 22.566 22.566Z" fill="white"/>
</mask>
<g mask="url(#mask0_16966_5985)">
</g>
<path fill-rule="evenodd" clip-rule="evenodd" d="M10.9918 15.6972L11.3382 15.7725C11.4001 15.7859 11.4443 15.8407 11.4443 15.9041V16.6672C11.4443 16.7305 11.4001 16.7853 11.3382 16.7988L10.9918 16.8741C10.9617 16.9663 10.9244 17.0562 10.8804 17.1429L11.0721 17.4412C11.1064 17.4944 11.0989 17.5644 11.0541 17.6092L10.5145 18.1488C10.4697 18.1936 10.3997 18.2011 10.3464 18.1669L10.0481 17.9751C9.9615 18.0191 9.87155 18.0565 9.77933 18.0866L9.70403 18.433C9.69059 18.4949 9.63578 18.539 9.57244 18.539H8.80933C8.74599 18.539 8.69118 18.4949 8.67774 18.433L8.60244 18.0866C8.51022 18.0565 8.42027 18.0191 8.33363 17.9751L8.03534 18.1669C7.98205 18.2011 7.91208 18.1936 7.86731 18.1488L7.32769 17.6092C7.28292 17.5644 7.27539 17.4944 7.30964 17.4412L7.5014 17.1429C7.45735 17.0562 7.42004 16.9663 7.38992 16.8741L7.04354 16.7988C6.98165 16.7853 6.9375 16.7305 6.9375 16.6672V15.9041C6.9375 15.8407 6.98165 15.7859 7.04354 15.7725L7.38992 15.6972C7.42004 15.6049 7.45735 15.515 7.5014 15.4284L7.30964 15.1301C7.27539 15.0768 7.28292 15.0068 7.32769 14.962L7.86731 14.4224C7.91208 14.3776 7.98205 14.3701 8.03534 14.4044L8.33363 14.5961C8.42027 14.5521 8.51022 14.5148 8.60244 14.4847L8.67774 14.1383C8.69118 14.0764 8.74599 14.0322 8.80933 14.0322H9.57244C9.63578 14.0322 9.69059 14.0764 9.70403 14.1383L9.77933 14.4847C9.87155 14.5148 9.9615 14.5521 10.0481 14.5961L10.3464 14.4044C10.3997 14.3701 10.4697 14.3776 10.5145 14.4224L11.0541 14.962C11.0989 15.0068 11.1064 15.0768 11.0721 15.1301L10.8804 15.4284C10.9244 15.515 10.9617 15.6049 10.9918 15.6972ZM9.19025 17.1309C9.65618 17.1309 10.0353 16.7518 10.0353 16.2859C10.0353 15.8199 9.65618 15.4408 9.19025 15.4408C8.72431 15.4408 8.34523 15.8199 8.34523 16.2859C8.34523 16.7518 8.72431 17.1309 9.19025 17.1309Z" fill="#F22E5D"/>
<path fill-rule="evenodd" clip-rule="evenodd" d="M15.875 7.27295C15.875 7.27295 18.1057 8.18292 18.4873 10.5923C18.7834 10.5923 18.869 10.5923 18.869 10.5923V7.27295H15.875Z" fill="white"/>
<path fill-rule="evenodd" clip-rule="evenodd" d="M14.8359 11.9788C14.8359 11.9788 16.149 11.9749 16.8826 10.137H17.2441V14.1072H16.9472C16.9472 14.1072 16.7239 13.362 16.1992 12.8331C15.6746 12.3041 14.8359 11.9788 14.8359 11.9788Z" fill="white"/>
<path fill-rule="evenodd" clip-rule="evenodd" d="M11.9073 7.8269C11.9073 7.8269 16.3559 16.3401 16.8136 17.1637C17.2712 17.9873 18.2489 18.2355 18.2489 18.2355V18.5397H13.5456V18.2865C13.5456 18.2865 14.1108 18.2701 14.5627 18.0372C14.8964 17.8652 14.9554 17.4933 14.8571 17.1637C14.4225 15.7081 10.9531 9.41909 10.9531 9.41909L11.9073 7.8269Z" fill="white"/>
</svg>
