<svg width="182" height="26" viewBox="0 0 182 26" fill="none" xmlns="http://www.w3.org/2000/svg">
<path fill-rule="evenodd" clip-rule="evenodd" d="M22.566 22.566C18.2351 26.8967 7.57896 26.8967 3.24812 22.566C-1.08271 18.2351 -1.08271 7.57896 3.24812 3.24812C7.57896 -1.08271 18.2351 -1.08271 22.566 3.24812C26.8967 7.57896 26.8967 18.2351 22.566 22.566Z" fill="#232323"/>
<mask id="mask0_16966_5984" style="mask-type:luminance" maskUnits="userSpaceOnUse" x="0" y="0" width="26" height="26">
<path fill-rule="evenodd" clip-rule="evenodd" d="M22.566 22.566C18.2351 26.8967 7.57896 26.8967 3.24812 22.566C-1.08271 18.2351 -1.08271 7.57896 3.24812 3.24812C7.57896 -1.08271 18.2351 -1.08271 22.566 3.24812C26.8967 7.57896 26.8967 18.2351 22.566 22.566Z" fill="white"/>
</mask>
<g mask="url(#mask0_16966_5984)">
</g>
<path fill-rule="evenodd" clip-rule="evenodd" d="M10.9918 15.6972L11.3382 15.7725C11.4001 15.7859 11.4443 15.8407 11.4443 15.9041V16.6672C11.4443 16.7305 11.4001 16.7853 11.3382 16.7988L10.9918 16.8741C10.9617 16.9663 10.9244 17.0562 10.8804 17.1429L11.0721 17.4412C11.1064 17.4944 11.0989 17.5644 11.0541 17.6092L10.5145 18.1488C10.4697 18.1936 10.3997 18.2011 10.3464 18.1669L10.0481 17.9751C9.9615 18.0191 9.87155 18.0565 9.77933 18.0866L9.70403 18.433C9.69059 18.4949 9.63578 18.539 9.57244 18.539H8.80933C8.74599 18.539 8.69118 18.4949 8.67774 18.433L8.60244 18.0866C8.51022 18.0565 8.42027 18.0191 8.33363 17.9751L8.03534 18.1669C7.98205 18.2011 7.91208 18.1936 7.86731 18.1488L7.32769 17.6092C7.28292 17.5644 7.27539 17.4944 7.30964 17.4412L7.5014 17.1429C7.45735 17.0562 7.42004 16.9663 7.38992 16.8741L7.04354 16.7988C6.98165 16.7853 6.9375 16.7305 6.9375 16.6672V15.9041C6.9375 15.8407 6.98165 15.7859 7.04354 15.7725L7.38992 15.6972C7.42004 15.6049 7.45735 15.515 7.5014 15.4284L7.30964 15.1301C7.27539 15.0768 7.28292 15.0068 7.32769 14.962L7.86731 14.4224C7.91208 14.3776 7.98205 14.3701 8.03534 14.4044L8.33363 14.5961C8.42027 14.5521 8.51022 14.5148 8.60244 14.4847L8.67774 14.1383C8.69118 14.0764 8.74599 14.0322 8.80933 14.0322H9.57244C9.63578 14.0322 9.69059 14.0764 9.70403 14.1383L9.77933 14.4847C9.87155 14.5148 9.9615 14.5521 10.0481 14.5961L10.3464 14.4044C10.3997 14.3701 10.4697 14.3776 10.5145 14.4224L11.0541 14.962C11.0989 15.0068 11.1064 15.0768 11.0721 15.1301L10.8804 15.4284C10.9244 15.515 10.9617 15.6049 10.9918 15.6972ZM9.19025 17.1309C9.65618 17.1309 10.0353 16.7518 10.0353 16.2859C10.0353 15.8199 9.65618 15.4408 9.19025 15.4408C8.72431 15.4408 8.34523 15.8199 8.34523 16.2859C8.34523 16.7518 8.72431 17.1309 9.19025 17.1309Z" fill="#F22E5D"/>
<path fill-rule="evenodd" clip-rule="evenodd" d="M15.875 7.27295C15.875 7.27295 18.1057 8.18292 18.4873 10.5923C18.7834 10.5923 18.869 10.5923 18.869 10.5923V7.27295H15.875Z" fill="white"/>
<path fill-rule="evenodd" clip-rule="evenodd" d="M14.8359 11.9788C14.8359 11.9788 16.149 11.9749 16.8826 10.137H17.2441V14.1072H16.9472C16.9472 14.1072 16.7239 13.362 16.1992 12.8331C15.6746 12.3041 14.8359 11.9788 14.8359 11.9788Z" fill="white"/>
<path fill-rule="evenodd" clip-rule="evenodd" d="M11.9073 7.8269C11.9073 7.8269 16.3559 16.3401 16.8136 17.1637C17.2712 17.9873 18.2489 18.2355 18.2489 18.2355V18.5397H13.5456V18.2865C13.5456 18.2865 14.1108 18.2701 14.5627 18.0372C14.8964 17.8652 14.9554 17.4933 14.8571 17.1637C14.4225 15.7081 10.9531 9.41909 10.9531 9.41909L11.9073 7.8269Z" fill="white"/>
<path d="M44.9485 22.5156V18.791H48.4018V8.08571H45.3925V4.38573H50.5231C51.8798 4.38573 52.6444 5.10106 52.6444 6.45772V18.791H56.0977V22.5156H44.9485ZM57.4802 22.5156V18.791H60.9829V13.759H57.9242V10.0344H62.7342C64.0909 10.0344 64.8802 10.725 64.8802 12.1064V18.791H68.4075V22.5156H57.4802ZM60.1689 6.82772C60.1689 5.39706 61.1309 4.70639 62.6355 4.70639C64.1402 4.70639 65.1762 5.39706 65.1762 6.82772C65.1762 8.28304 64.1402 8.94904 62.6355 8.94904C61.1309 8.94904 60.1689 8.28304 60.1689 6.82772ZM69.1562 16.2503C69.1562 12.0077 72.0668 9.7877 76.0381 9.7877C79.6148 9.7877 82.7228 11.761 82.8708 15.2637H78.6281C78.5048 14.3263 77.5921 13.5123 76.0381 13.5123C74.5581 13.5123 73.3741 14.4497 73.3741 16.2503C73.3741 18.0757 74.5581 19.0376 76.0381 19.0376C77.5921 19.0376 78.5048 18.2236 78.6281 17.2863H82.8708C82.7228 20.789 79.6148 22.7623 76.0381 22.7623C72.0668 22.7623 69.1562 20.5176 69.1562 16.2503ZM84.7552 22.5156V4.38573H88.9732V14.795L93.6598 10.0344H98.7658L92.7472 16.1023L98.7658 22.5156H93.6598L88.9732 17.3603V22.5156H84.7552ZM99.5058 10.0344H103.551L105.253 18.569L105.722 20.937L107.251 10.0344H114.947L116.526 20.863L116.945 18.5936L118.647 10.0344H122.692L120.201 22.5156H112.678L111.099 11.4157L109.545 22.5156H101.898L99.5058 10.0344ZM124.308 22.5156V4.38573H128.526V12.9697C129.168 11.1444 130.796 9.7877 133.484 9.7877C136.74 9.7877 138.689 11.983 138.689 15.905V22.5156H134.422V16.571C134.422 14.3263 133.83 13.5123 131.955 13.5123C129.883 13.5123 128.526 14.499 128.526 18.0263V22.5156H124.308ZM140.289 16.2257C140.289 12.205 143.052 9.7877 146.925 9.7877C151.241 9.7877 153.732 12.131 153.732 16.053V17.163H144.532C144.68 18.717 145.593 19.5803 147.122 19.5803C148.429 19.5803 149.317 19.0623 149.564 18.1003H153.757C153.412 20.863 150.97 22.7623 147.122 22.7623C142.904 22.7623 140.289 20.123 140.289 16.2257ZM144.532 14.9923H149.613C149.49 13.611 148.528 12.8463 147.048 12.8463C145.593 12.8463 144.631 13.611 144.532 14.9923ZM155.031 16.2257C155.031 12.205 157.794 9.7877 161.667 9.7877C165.983 9.7877 168.475 12.131 168.475 16.053V17.163H159.274C159.422 18.717 160.335 19.5803 161.864 19.5803C163.171 19.5803 164.059 19.0623 164.306 18.1003H168.499C168.154 20.863 165.712 22.7623 161.864 22.7623C157.646 22.7623 155.031 20.123 155.031 16.2257ZM159.274 14.9923H164.355C164.232 13.611 163.27 12.8463 161.79 12.8463C160.335 12.8463 159.373 13.611 159.274 14.9923ZM169.437 22.5156V18.791H172.891V8.08571H169.881V4.38573H175.012C176.369 4.38573 177.133 5.10106 177.133 6.45772V18.791H180.587V22.5156H169.437Z" fill="#232323"/>
<path d="M31.7844 13.759V10.0344H34.1031V9.7877C34.1031 6.30972 36.1504 4.38573 40.5164 4.38573H42.6377V8.08571H39.9737C38.8637 8.08571 38.3457 8.60371 38.3457 9.9357V10.0344H41.947V13.759H38.3457V18.791H41.947V22.5156H31.7844V18.791H34.1031V13.759H31.7844Z" fill="#232323"/>
</svg>
