<svg width="16" height="16" viewBox="0 0 16 16" fill="none" xmlns="http://www.w3.org/2000/svg">
<path d="M8.28755 3.20565L9.0872 4.81165C9.19675 5.03209 9.4862 5.24949 9.73029 5.28773L11.1824 5.5343C12.1122 5.69015 12.3246 6.364 11.6584 7.03143L10.5237 8.16186C10.3343 8.35133 10.2241 8.72363 10.2856 8.9851L10.6056 10.3875C10.857 11.4946 10.2694 11.9236 9.2943 11.3431L7.9322 10.5319C7.68415 10.3836 7.27987 10.3862 7.03461 10.53L5.66999 11.332C4.69314 11.9051 4.10587 11.4747 4.36251 10.3696L4.69041 8.97113C4.75164 8.70972 4.648 8.33678 4.45853 8.14732L3.32811 7.01258C2.66488 6.3442 2.88009 5.67165 3.80895 5.51845L5.25927 5.28028C5.50412 5.23806 5.79483 5.02784 5.9033 4.80586L6.71039 3.20038C7.14462 2.33363 7.85592 2.33651 8.28755 3.20565Z" fill="#FFC043"/>
</svg>
